#!OML:ASF H:\BreakDance\Project 1\Capture day 1\Session 1\Male.ASF
:FULLY-SPECIFIED
:DEGREES
170
root 17.9819 12.6156 -9.55076 -152.161 250.692 -34.5341
lowerback -0.385856 -6.0331 5.19726
upperback 0.44608 -7.89379 2.62239
thorax 0.34118 -3.83582 -0.212017
lowerneck -11.3343 3.88531 -1.74788
upperneck 3.89399 5.36323 1.58387
head 3.1618 2.71612 1.15884
rclavicle 5.25537e-014 -1.07344e-014
rhumerus 43.3487 -26.2637 -63.1194
rradius 91.9261
rwrist -18.3424
rhand -52.2359 100.542
rfingers 7.12502
rthumb -24.7336 128.963
lclavicle 5.25537e-014 -1.07344e-014
lhumerus 65.7528 -29.4028 51.7757
lradius 86.2321
lwrist 24.1478
lhand -46.1666 -252.452
lfingers 7.12502
lthumb -18.9059 -78.4466
rfemur -49.3593 21.5449 -13.7274
rtibia 78.4474
rfoot -10.2446 5.19288
rtoes -18.2748
lfemur -15.7085 12.085 -26.6365
ltibia 29.6023
lfoot -4.54113 -11.7148
ltoes -32.9381
171
root 17.9992 12.6065 -9.59963 -154.333 248.438 -31.8737
lowerback -0.63031 -6.16546 5.30426
upperback 0.336296 -8.06805 2.89917
thorax 0.381938 -3.91632 -0.00862975
lowerneck -11.0398 4.2834 -1.50239
upperneck 3.78143 5.87432 1.34363
head 3.07 2.96497 1.05517
rclavicle -1.2275e-013 2.20651e-014
rhumerus 43.2209 -28.0145 -62.0187
rradius 92.535
rwrist -18.0652
rhand -52.8811 101.336
rfingers 7.12502
rthumb -25.3518 129.671
lclavicle -1.2275e-013 2.20651e-014
lhumerus 67.1256 -29.5153 50.0541
lradius 85.9514
lwrist 24.8095
lhand -46.7394 -253.758
lfingers 7.12502
lthumb -19.4567 -77.1958
rfemur -51.6187 20.8949 -14.8484
rtibia 81.0931
rfoot -11.2278 6.18058
rtoes -12.6594
lfemur -14.412 14.707 -28.3698
ltibia 26.7514
lfoot -3.61045 -11.5338
ltoes -31.3833
172
root 18.0121 12.5926 -9.63818 -155.915 246.384 -29.8192
lowerback -0.868996 -6.2345 5.48028
upperback 0.229503 -8.1603 3.14911
thorax 0.412915 -3.95662 0.130423
lowerneck -10.7573 4.64063 -1.35851
upperneck 3.52427 6.35797 1.01577
head 2.9342 3.19892 0.935574
rclavicle -7.96133e-014 -2.72335e-014
rhumerus 43.2184 -29.7153 -61.1397
rradius 93.15
rwrist -17.7066
rhand -53.4382 101.875
rfingers 7.12502
rthumb -25.8855 130.133
lclavicle -7.96133e-014 -2.72335e-014
lhumerus 68.4643 -29.5139 48.3294
lradius 85.6545
lwrist 25.271
lhand -47.4169 -255.278
lfingers 7.12502
lthumb -20.1081 -75.7425
rfemur -53.955 20.1811 -16.0434
rtibia 83.4934
rfoot -12.153 7.08795
rtoes -7.33303
lfemur -12.9585 17.3095 -30.1331
ltibia 23.8167
lfoot -2.5068 -10.9992
ltoes -29.6385
173
root 18.0208 12.5752 -9.66918 -157.043 244.496 -28.2371
lowerback -1.09123 -6.25018 5.72259
upperback 0.119444 -8.18223 3.38738
thorax 0.423045 -3.96268 0.224436
lowerneck -10.6567 4.9469 -1.33166
upperneck 3.49068 6.77896 0.824409
head 2.90477 3.40319 0.888134
rclavicle 1.49598e-013 3.04141e-014
rhumerus 43.2893 -31.3935 -60.4722
rradius 93.8134
rwrist -17.3259
rhand -53.898 102.043
rfingers 7.12502
rthumb -26.3256 130.236
lclavicle 1.49598e-013 3.04141e-014
lhumerus 69.7301 -29.4498 46.6593
lradius 85.3649
lwrist 25.6186
lhand -48.1183 -257.055
lfingers 7.12502
lthumb -20.7821 -74.0383
rfemur -56.356 19.3788 -17.2517
rtibia 85.6369
rfoot -13.0005 7.76714
rtoes -2.83687
lfemur -11.3367 19.8446 -31.855
ltibia 20.724
lfoot -1.2214 -10.2635
ltoes -27.8474
174
root 18.0245 12.5529 -9.69436 -157.778 242.725 -27.0611
lowerback -1.30574 -6.22382 6.03482
upperback 0.0057299 -8.14893 3.62945
thorax 0.417821 -3.94158 0.286683
lowerneck -10.6686 5.18734 -1.36227
upperneck 3.5601 7.11357 0.719126
head 2.92885 3.56545 0.880079
rclavicle -1.54046e-013 8.74653e-015
rhumerus 43.4696 -33.0512 -60.0247
rradius 94.4931
rwrist -16.9163
rhand -54.3209 101.849
rfingers 7.12502
rthumb -26.7305 129.98
lclavicle -1.54046e-013 8.74653e-015
lhumerus 70.9263 -29.3783 45.0676
lradius 85.1154
lwrist 25.9222
lhand -48.6919 -259.201
lfingers 7.12502
lthumb -21.3331 -71.9536
rfemur -58.7853 18.4496 -18.3912
rtibia 87.5117
rfoot -13.7772 8.05645
rtoes 0.513253
lfemur -9.45442 22.2782 -33.4698
ltibia 17.2678
lfoot 0.364839 -9.43516
ltoes -26.4933
175
root 18.0257 12.5338 -9.72195 -158.235 241.068 -26.1784
lowerback -1.50166 -6.15966 6.38477
upperback -0.109519 -8.06534 3.87327
thorax 0.397582 -3.89611 0.33351
lowerneck -10.7171 5.36846 -1.39526
upperneck 3.5664 7.36714 0.657077
head 2.93777 3.68945 0.881698
rclavicle 1.47964e-013 3.37934e-014
rhumerus 43.7862 -34.6823 -59.7828
rradius 95.164
rwrist -16.4508
rhand -54.7324 101.221
rfingers 7.12502
rthumb -27.1241 129.292
lclavicle 1.47964e-013 3.37934e-014
lhumerus 72.0835 -29.2867 43.5363
lradius 84.9568
lwrist 26.2876
lhand -49.0982 -261.698
lfingers 7.12502
lthumb -21.7233 -69.5007
rfemur -61.0715 17.3904 -19.51
rtibia 89.1079
rfoot -14.8183 8.14112
rtoes 3.30029
lfemur -7.13993 24.5809 -34.9517
ltibia 13.14
lfoot 2.4433 -8.50296
ltoes -25.6165
176
root 18.0228 12.5084 -9.74379 -158.523 239.49 -25.4826
lowerback -1.64533 -6.07538 6.75544
upperback -0.24018 -7.9502 4.11651
thorax 0.330747 -3.83675 0.376511
lowerneck -10.7648 5.50089 -1.35867
upperneck 3.49554 7.55054 0.543015
head 2.92597 3.7787 0.849014
rclavicle -1.75632e-013 -1.2921e-015
rhumerus 44.247 -36.2448 -59.7171
rradius 95.7954
rwrist -15.8586
rhand -55.1402 100.101
rfingers 7.12502
rthumb -27.5143 128.111
lclavicle -1.75632e-013 -1.2921e-015
lhumerus 73.1919 -29.1779 42.0726
lradius 84.9404
lwrist 26.7487
lhand -49.3692 -264.292
lfingers 7.12502
lthumb -21.9836 -66.9377
rfemur -63.2999 16.1987 -20.5306
rtibia 90.2619
rfoot -15.5522 7.87917
rtoes 6.62079
lfemur -3.62827 24.2762 -36.1354
ltibia 7.11313
lfoot 4.48409 -5.05612
ltoes -25.7192
177
root 18.016 12.477 -9.76102 -158.687 237.937 -24.9122
lowerback -1.76915 -5.99061 7.15042
upperback -0.394085 -7.83115 4.36201
thorax 0.226174 -3.77714 0.413353
lowerneck -10.711 5.58849 -1.23555
upperneck 3.21794 7.67427 0.284021
head 2.83472 3.83794 0.742765
rclavicle -4.69008e-014 -2.55935e-014
rhumerus 44.8652 -37.6896 -59.8103
rradius 96.3593
rwrist -15.0664
rhand -55.5102 98.6211
rfingers 7.12502
rthumb -27.8681 126.574
lclavicle -4.69008e-014 -2.55935e-014
lhumerus 74.2201 -29.0812 40.6986
lradius 85.1087
lwrist 27.2488
lhand -49.7236 -266.653
lfingers 7.12502
lthumb -22.3238 -64.6163
rfemur -65.3654 14.8552 -21.4267
rtibia 90.9448
rfoot -16.1024 7.31854
rtoes 10.8331
lfemur 0.44082 24.0796 -37.5591
ltibia -1.74931e-014
lfoot 7.14359 -1.66771
ltoes -26.6602
178
root 18.0025 12.4359 -9.77135 -158.811 236.386 -24.3817
lowerback -1.89425 -5.91708 7.53792
upperback -0.558427 -7.72623 4.5999
thorax 0.110999 -3.72554 0.447544
lowerneck -10.6519 5.66481 -1.096
upperneck 2.89192 7.78694 -0.0516378
head 2.73106 3.8909 0.607875
rclavicle -1.70658e-013 3.02153e-014
rhumerus 45.6197 -39.014 -60.037
rradius 96.8586
rwrist -14.0463
rhand -55.7974 96.9448
rfingers 7.12502
rthumb -28.1426 124.853
lclavicle -1.70658e-013 3.02153e-014
lhumerus 75.1526 -28.9834 39.4094
lradius 85.5021
lwrist 27.7749
lhand -50.0258 -269.217
lfingers 7.12502
lthumb -22.6138 -62.0879
rfemur -67.2998 13.3426 -22.1688
rtibia 91.1985
rfoot -16.3973 6.36112
rtoes 15.0795
lfemur 0.878223 23.8749 -38.7008
ltibia 2.06736e-014
lfoot 7.04232 -0.00173886
ltoes -28.3769
